# MagicaVoxel @ Ephtracy

# group
o 

# material
mtllib enemy.mtl
usemtl palette

# normals
vn 1 0 0
vn -1 0 0
vn 0 0 -1
vn 0 0 1
vn 0 -1 0
vn 0 1 0

# texcoords
vt 0.0644531 0.5
vt 0.482422 0.5
vt 0.845703 0.5
vt 0.849609 0.5
vt 0.884766 0.5
vt 0.888672 0.5
vt 0.904297 0.5
vt 0.912109 0.5
vt 0.966797 0.5
vt 0.994141 0.5

# verts
v 0.4 0.2 -2.98023e-008
v 0.4 0.2 0.1
v 0.4 0.3 -2.98023e-008
v 0.4 0.3 0.1
v 0.4 0.9 -2.98023e-008
v 0.4 0.9 0.1
v 0.4 1 -2.98023e-008
v 0.4 1 0.1
v 0.3 0.3 -2.98023e-008
v 0.3 0.3 0.1
v 0.3 0.6 -0.1
v 0.3 0.6 -2.98023e-008
v 0.3 0.6 0.1
v 0.3 0.6 0.2
v 0.3 0.7 -2.98023e-008
v 0.3 0.7 0.1
v 0.3 0.9 -2.98023e-008
v 0.3 0.9 0.1
v 0.3 0.9 0.2
v 0.3 0.9 0.3
v 0.3 1 -0.2
v 0.3 1 -0.1
v 0.3 1 -2.98023e-008
v 0.3 1 0.1
v 0.3 1 0.3
v 0.3 1.1 -0.2
v 0.3 1.1 -0.1
v 0.3 1.1 0.1
v 0.3 1.2 -0.2
v 0.3 1.2 -0.1
v 0.2 0.1 -0.3
v 0.2 0.1 -0.1
v 0.2 0.2 -0.3
v 0.2 0.2 -0.2
v 0.2 0.4 0.1
v 0.2 0.4 0.2
v 0.2 0.5 -0.1
v 0.2 0.5 -2.98023e-008
v 0.2 0.6 -0.2
v 0.2 0.6 -0.1
v 0.2 0.6 -2.98023e-008
v 0.2 0.6 0.1
v 0.2 0.6 0.2
v 0.2 0.6 0.3
v 0.2 0.7 -0.3
v 0.2 0.7 -0.2
v 0.2 0.7 -2.98023e-008
v 0.2 0.7 0.1
v 0.2 0.8 -0.3
v 0.2 0.8 -0.2
v 0.2 0.9 -0.2
v 0.2 0.9 -0.1
v 0.2 0.9 -2.98023e-008
v 0.2 0.9 0.1
v 0.2 0.9 0.2
v 0.2 0.9 0.3
v 0.2 0.9 0.4
v 0.2 1 0.3
v 0.2 1 0.4
v 0.1 0.4 -2.98023e-008
v 0.1 0.4 0.1
v 0.1 0.4 0.2
v 0.1 0.4 0.3
v 0.1 0.5 -2.98023e-008
v 0.1 0.5 0.1
v 0.1 0.5 0.2
v 0.1 0.5 0.3
v 0.1 1 0.1
v 0.1 1 0.2
v 0.1 1 0.4
v 0.1 1.1 0.1
v 0.1 1.1 0.4
v -0.1 0.1 -0.3
v -0.1 0.1 -0.1
v -0.1 0.2 -0.3
v -0.1 0.2 -0.2
v -0.1 0.4 0.1
v -0.1 0.4 0.2
v -0.1 0.5 -0.1
v -0.1 0.5 0.2
v -0.1 0.6 -0.2
v -0.1 0.6 -0.1
v -0.1 0.6 0.1
v -0.1 0.6 0.2
v -0.1 0.7 -0.3
v -0.1 0.7 -0.2
v -0.1 0.7 -0.1
v -0.1 0.8 -0.3
v -0.1 0.8 -0.2
v -0.1 0.8 -0.1
v -0.1 0.9 -0.2
v -0.1 0.9 -0.1
v -0.1 0.9 -2.98023e-008
v -0.1 1 -0.1
v -0.1 1 -2.98023e-008
v -0.2 0.2 -2.98023e-008
v -0.2 0.2 0.1
v -0.2 0.4 0.1
v -0.2 0.5 -2.98023e-008
v -0.2 0.5 0.1
v -0.2 1 -0.2
v -0.2 1 -0.1
v -0.2 1 0.1
v -0.2 1.1 -0.2
v -0.2 1.1 -0.1
v -0.2 1.1 0.1
v -0.2 1.2 -0.2
v -0.2 1.2 -0.1
v 0.2 0.2 -2.98023e-008
v 0.2 0.2 0.1
v 0.2 0.4 0.1
v 0.2 0.5 -2.98023e-008
v 0.2 0.5 0.1
v 0.2 1 -0.2
v 0.2 1 -0.1
v 0.2 1 0.1
v 0.2 1.1 -0.2
v 0.2 1.1 -0.1
v 0.2 1.1 0.1
v 0.2 1.2 -0.2
v 0.2 1.2 -0.1
v 0.1 0.1 -0.3
v 0.1 0.1 -0.1
v 0.1 0.2 -0.3
v 0.1 0.2 -0.2
v 0.1 0.4 0.1
v 0.1 0.4 0.2
v 0.1 0.5 -0.1
v 0.1 0.5 0.2
v 0.1 0.6 -0.2
v 0.1 0.6 -0.1
v 0.1 0.6 0.1
v 0.1 0.6 0.2
v 0.1 0.7 -0.3
v 0.1 0.7 -0.2
v 0.1 0.7 -0.1
v 0.1 0.8 -0.3
v 0.1 0.8 -0.2
v 0.1 0.8 -0.1
v 0.1 0.9 -0.2
v 0.1 0.9 -0.1
v 0.1 0.9 -2.98023e-008
v 0.1 1 -0.1
v 0.1 1 -2.98023e-008
v -0.1 0.4 -2.98023e-008
v -0.1 0.4 0.1
v -0.1 0.4 0.2
v -0.1 0.4 0.3
v -0.1 0.5 -2.98023e-008
v -0.1 0.5 0.1
v -0.1 0.5 0.2
v -0.1 0.5 0.3
v -0.1 1 0.1
v -0.1 1 0.2
v -0.1 1 0.4
v -0.1 1.1 0.1
v -0.1 1.1 0.4
v -0.2 0.1 -0.3
v -0.2 0.1 -0.1
v -0.2 0.2 -0.3
v -0.2 0.2 -0.2
v -0.2 0.4 0.1
v -0.2 0.4 0.2
v -0.2 0.5 -0.1
v -0.2 0.5 -2.98023e-008
v -0.2 0.6 -0.2
v -0.2 0.6 -0.1
v -0.2 0.6 -2.98023e-008
v -0.2 0.6 0.1
v -0.2 0.6 0.2
v -0.2 0.6 0.3
v -0.2 0.7 -0.3
v -0.2 0.7 -0.2
v -0.2 0.7 -2.98023e-008
v -0.2 0.7 0.1
v -0.2 0.8 -0.3
v -0.2 0.8 -0.2
v -0.2 0.9 -0.2
v -0.2 0.9 -0.1
v -0.2 0.9 -2.98023e-008
v -0.2 0.9 0.1
v -0.2 0.9 0.2
v -0.2 0.9 0.3
v -0.2 0.9 0.4
v -0.2 1 0.3
v -0.2 1 0.4
v -0.3 0.3 -2.98023e-008
v -0.3 0.3 0.1
v -0.3 0.6 -0.1
v -0.3 0.6 -2.98023e-008
v -0.3 0.6 0.1
v -0.3 0.6 0.2
v -0.3 0.7 -2.98023e-008
v -0.3 0.7 0.1
v -0.3 0.9 -2.98023e-008
v -0.3 0.9 0.1
v -0.3 0.9 0.2
v -0.3 0.9 0.3
v -0.3 1 -0.2
v -0.3 1 -0.1
v -0.3 1 -2.98023e-008
v -0.3 1 0.1
v -0.3 1 0.3
v -0.3 1.1 -0.2
v -0.3 1.1 -0.1
v -0.3 1.1 0.1
v -0.3 1.2 -0.2
v -0.3 1.2 -0.1
v -0.4 0.2 -2.98023e-008
v -0.4 0.2 0.1
v -0.4 0.3 -2.98023e-008
v -0.4 0.3 0.1
v -0.4 0.9 -2.98023e-008
v -0.4 0.9 0.1
v -0.4 1 -2.98023e-008
v -0.4 1 0.1
v 0.2 0.1 -0.3
v 0.2 0.2 -0.3
v 0.2 0.7 -0.3
v 0.2 0.8 -0.3
v 0.1 0.1 -0.3
v 0.1 0.2 -0.3
v 0.1 0.7 -0.3
v 0.1 0.8 -0.3
v -0.1 0.1 -0.3
v -0.1 0.2 -0.3
v -0.1 0.7 -0.3
v -0.1 0.8 -0.3
v -0.2 0.1 -0.3
v -0.2 0.2 -0.3
v -0.2 0.7 -0.3
v -0.2 0.8 -0.3
v 0.3 1 -0.2
v 0.3 1.1 -0.2
v 0.3 1.2 -0.2
v 0.2 0.2 -0.2
v 0.2 0.6 -0.2
v 0.2 0.7 -0.2
v 0.2 0.8 -0.2
v 0.2 0.9 -0.2
v 0.2 1 -0.2
v 0.2 1.1 -0.2
v 0.2 1.2 -0.2
v 0.1 0.2 -0.2
v 0.1 0.6 -0.2
v 0.1 0.7 -0.2
v 0.1 0.8 -0.2
v 0.1 0.9 -0.2
v -0.1 0.2 -0.2
v -0.1 0.6 -0.2
v -0.1 0.7 -0.2
v -0.1 0.8 -0.2
v -0.1 0.9 -0.2
v -0.2 0.2 -0.2
v -0.2 0.6 -0.2
v -0.2 0.7 -0.2
v -0.2 0.8 -0.2
v -0.2 0.9 -0.2
v -0.2 1 -0.2
v -0.2 1.1 -0.2
v -0.2 1.2 -0.2
v -0.3 1 -0.2
v -0.3 1.1 -0.2
v -0.3 1.2 -0.2
v 0.3 0.6 -0.1
v 0.3 1 -0.1
v 0.2 0.6 -0.1
v 0.2 0.9 -0.1
v 0.2 1 -0.1
v 0.1 0.5 -0.1
v 0.1 0.6 -0.1
v 0.1 0.7 -0.1
v 0.1 0.8 -0.1
v 0.1 0.9 -0.1
v 0.1 1 -0.1
v -0.1 0.5 -0.1
v -0.1 0.6 -0.1
v -0.1 0.7 -0.1
v -0.1 0.8 -0.1
v -0.1 0.9 -0.1
v -0.1 1 -0.1
v -0.2 0.6 -0.1
v -0.2 0.9 -0.1
v -0.2 1 -0.1
v -0.3 0.6 -0.1
v -0.3 1 -0.1
v 0.4 0.2 -2.98023e-008
v 0.4 0.3 -2.98023e-008
v 0.4 0.9 -2.98023e-008
v 0.4 1 -2.98023e-008
v 0.3 0.3 -2.98023e-008
v 0.3 0.6 -2.98023e-008
v 0.3 0.9 -2.98023e-008
v 0.3 1 -2.98023e-008
v 0.2 0.2 -2.98023e-008
v 0.2 0.5 -2.98023e-008
v 0.2 0.6 -2.98023e-008
v 0.1 0.4 -2.98023e-008
v 0.1 0.5 -2.98023e-008
v 0.1 0.9 -2.98023e-008
v 0.1 1 -2.98023e-008
v -0.1 0.4 -2.98023e-008
v -0.1 0.5 -2.98023e-008
v -0.1 0.9 -2.98023e-008
v -0.1 1 -2.98023e-008
v -0.2 0.2 -2.98023e-008
v -0.2 0.5 -2.98023e-008
v -0.2 0.6 -2.98023e-008
v -0.3 0.3 -2.98023e-008
v -0.3 0.6 -2.98023e-008
v -0.3 0.9 -2.98023e-008
v -0.3 1 -2.98023e-008
v -0.4 0.2 -2.98023e-008
v -0.4 0.3 -2.98023e-008
v -0.4 0.9 -2.98023e-008
v -0.4 1 -2.98023e-008
v 0.3 0.7 0.1
v 0.3 0.9 0.1
v 0.2 0.4 0.1
v 0.2 0.5 0.1
v 0.2 0.7 0.1
v 0.2 0.9 0.1
v 0.1 0.4 0.1
v 0.1 0.5 0.1
v 0.1 1 0.1
v 0.1 1.1 0.1
v -0.1 0.4 0.1
v -0.1 0.5 0.1
v -0.1 1 0.1
v -0.1 1.1 0.1
v -0.2 0.4 0.1
v -0.2 0.5 0.1
v -0.2 0.7 0.1
v -0.2 0.9 0.1
v -0.3 0.7 0.1
v -0.3 0.9 0.1
v 0.1 0.4 0.2
v 0.1 0.5 0.2
v -0.1 0.4 0.2
v -0.1 0.5 0.2
v 0.3 1.1 -0.1
v 0.3 1.2 -0.1
v 0.2 0.1 -0.1
v 0.2 0.5 -0.1
v 0.2 1.1 -0.1
v 0.2 1.2 -0.1
v 0.1 0.1 -0.1
v 0.1 0.5 -0.1
v -0.1 0.1 -0.1
v -0.1 0.5 -0.1
v -0.2 0.1 -0.1
v -0.2 0.5 -0.1
v -0.2 1.1 -0.1
v -0.2 1.2 -0.1
v -0.3 1.1 -0.1
v -0.3 1.2 -0.1
v 0.3 0.7 -2.98023e-008
v 0.3 0.9 -2.98023e-008
v 0.2 0.7 -2.98023e-008
v 0.2 0.9 -2.98023e-008
v -0.2 0.7 -2.98023e-008
v -0.2 0.9 -2.98023e-008
v -0.3 0.7 -2.98023e-008
v -0.3 0.9 -2.98023e-008
v 0.4 0.2 0.1
v 0.4 0.3 0.1
v 0.4 0.9 0.1
v 0.4 1 0.1
v 0.3 0.3 0.1
v 0.3 0.6 0.1
v 0.3 0.9 0.1
v 0.3 1 0.1
v 0.3 1.1 0.1
v 0.2 0.2 0.1
v 0.2 0.4 0.1
v 0.2 0.6 0.1
v 0.2 1 0.1
v 0.2 1.1 0.1
v 0.1 0.4 0.1
v 0.1 0.6 0.1
v -0.1 0.4 0.1
v -0.1 0.6 0.1
v -0.2 0.2 0.1
v -0.2 0.4 0.1
v -0.2 0.6 0.1
v -0.2 1 0.1
v -0.2 1.1 0.1
v -0.3 0.3 0.1
v -0.3 0.6 0.1
v -0.3 0.9 0.1
v -0.3 1 0.1
v -0.3 1.1 0.1
v -0.4 0.2 0.1
v -0.4 0.3 0.1
v -0.4 0.9 0.1
v -0.4 1 0.1
v 0.3 0.6 0.2
v 0.3 0.9 0.2
v 0.2 0.4 0.2
v 0.2 0.6 0.2
v 0.2 0.9 0.2
v 0.1 0.4 0.2
v 0.1 0.5 0.2
v 0.1 0.6 0.2
v -0.1 0.4 0.2
v -0.1 0.5 0.2
v -0.1 0.6 0.2
v -0.2 0.4 0.2
v -0.2 0.6 0.2
v -0.2 0.9 0.2
v -0.3 0.6 0.2
v -0.3 0.9 0.2
v 0.3 0.9 0.3
v 0.3 1 0.3
v 0.2 0.6 0.3
v 0.2 0.9 0.3
v 0.2 1 0.3
v 0.1 0.4 0.3
v 0.1 0.5 0.3
v 0.1 0.7 0.3
v 0.1 0.8 0.3
v 0.1 0.9 0.3
v 0 0.8 0.3
v 0 0.9 0.3
v -0.1 0.4 0.3
v -0.1 0.5 0.3
v -0.1 0.7 0.3
v -0.1 0.9 0.3
v -0.2 0.6 0.3
v -0.2 0.9 0.3
v -0.2 1 0.3
v -0.3 0.9 0.3
v -0.3 1 0.3
v 0.2 0.9 0.4
v 0.2 1 0.4
v 0.1 1 0.4
v 0.1 1.1 0.4
v -0.1 1 0.4
v -0.1 1.1 0.4
v -0.2 0.9 0.4
v -0.2 1 0.4
v 0.2 0.1 -0.3
v 0.1 0.1 -0.3
v -0.1 0.1 -0.3
v -0.2 0.1 -0.3
v 0.2 0.1 -0.1
v 0.1 0.1 -0.1
v -0.1 0.1 -0.1
v -0.2 0.1 -0.1
v 0.4 0.2 -2.98023e-008
v 0.2 0.2 -2.98023e-008
v -0.2 0.2 -2.98023e-008
v -0.4 0.2 -2.98023e-008
v 0.4 0.2 0.1
v 0.2 0.2 0.1
v -0.2 0.2 0.1
v -0.4 0.2 0.1
v 0.1 0.4 -2.98023e-008
v -0.1 0.4 -2.98023e-008
v 0.2 0.4 0.1
v 0.1 0.4 0.1
v -0.1 0.4 0.1
v -0.2 0.4 0.1
v 0.2 0.4 0.2
v 0.1 0.4 0.2
v -0.1 0.4 0.2
v -0.2 0.4 0.2
v 0.1 0.4 0.3
v -0.1 0.4 0.3
v 0.2 0.5 -0.1
v 0.1 0.5 -0.1
v -0.1 0.5 -0.1
v -0.2 0.5 -0.1
v 0.2 0.5 -2.98023e-008
v 0.1 0.5 -2.98023e-008
v -0.1 0.5 -2.98023e-008
v -0.2 0.5 -2.98023e-008
v 0.2 0.5 0.1
v 0.1 0.5 0.1
v -0.1 0.5 0.1
v -0.2 0.5 0.1
v 0.3 0.6 -0.1
v 0.2 0.6 -0.1
v -0.2 0.6 -0.1
v -0.3 0.6 -0.1
v 0.3 0.6 -2.98023e-008
v 0.2 0.6 -2.98023e-008
v -0.2 0.6 -2.98023e-008
v -0.3 0.6 -2.98023e-008
v 0.3 0.6 0.1
v 0.2 0.6 0.1
v 0.1 0.6 0.1
v -0.1 0.6 0.1
v -0.2 0.6 0.1
v -0.3 0.6 0.1
v 0.3 0.6 0.2
v 0.2 0.6 0.2
v 0.1 0.6 0.2
v -0.1 0.6 0.2
v -0.2 0.6 0.2
v -0.3 0.6 0.2
v 0.2 0.6 0.3
v -0.2 0.6 0.3
v 0.2 0.7 -0.3
v 0.1 0.7 -0.3
v -0.1 0.7 -0.3
v -0.2 0.7 -0.3
v 0.2 0.7 -0.2
v 0.1 0.7 -0.2
v -0.1 0.7 -0.2
v -0.2 0.7 -0.2
v 0.1 0.7 -0.1
v -0.1 0.7 -0.1
v 0.4 0.9 -2.98023e-008
v 0.3 0.9 -2.98023e-008
v 0.2 0.9 -2.98023e-008
v -0.2 0.9 -2.98023e-008
v -0.3 0.9 -2.98023e-008
v -0.4 0.9 -2.98023e-008
v 0.4 0.9 0.1
v 0.3 0.9 0.1
v 0.2 0.9 0.1
v -0.2 0.9 0.1
v -0.3 0.9 0.1
v -0.4 0.9 0.1
v 0.3 0.9 0.2
v 0.2 0.9 0.2
v -0.2 0.9 0.2
v -0.3 0.9 0.2
v 0.3 0.9 0.3
v 0.2 0.9 0.3
v 0.1 0.9 0.3
v 0 0.9 0.3
v -0.1 0.9 0.3
v -0.2 0.9 0.3
v -0.3 0.9 0.3
v 0.2 0.9 0.4
v -0.2 0.9 0.4
v 0.3 1 -0.2
v 0.2 1 -0.2
v -0.2 1 -0.2
v -0.3 1 -0.2
v 0.3 1 -0.1
v 0.2 1 -0.1
v -0.2 1 -0.1
v -0.3 1 -0.1
v 0.2 0.2 -0.3
v 0.1 0.2 -0.3
v -0.1 0.2 -0.3
v -0.2 0.2 -0.3
v 0.2 0.2 -0.2
v 0.1 0.2 -0.2
v -0.1 0.2 -0.2
v -0.2 0.2 -0.2
v 0.4 0.3 -2.98023e-008
v 0.3 0.3 -2.98023e-008
v -0.3 0.3 -2.98023e-008
v -0.4 0.3 -2.98023e-008
v 0.4 0.3 0.1
v 0.3 0.3 0.1
v -0.3 0.3 0.1
v -0.4 0.3 0.1
v 0.1 0.5 0.2
v -0.1 0.5 0.2
v 0.1 0.5 0.3
v -0.1 0.5 0.3
v 0.3 0.7 -2.98023e-008
v 0.2 0.7 -2.98023e-008
v -0.2 0.7 -2.98023e-008
v -0.3 0.7 -2.98023e-008
v 0.3 0.7 0.1
v 0.2 0.7 0.1
v -0.2 0.7 0.1
v -0.3 0.7 0.1
v 0.2 0.8 -0.3
v 0.1 0.8 -0.3
v -0.1 0.8 -0.3
v -0.2 0.8 -0.3
v 0.2 0.8 -0.2
v 0.1 0.8 -0.2
v -0.1 0.8 -0.2
v -0.2 0.8 -0.2
v 0.1 0.8 -0.1
v -0.1 0.8 -0.1
v 0.2 0.9 -0.2
v 0.1 0.9 -0.2
v -0.1 0.9 -0.2
v -0.2 0.9 -0.2
v 0.2 0.9 -0.1
v 0.1 0.9 -0.1
v -0.1 0.9 -0.1
v -0.2 0.9 -0.1
v 0.1 0.9 -2.98023e-008
v -0.1 0.9 -2.98023e-008
v 0.2 1 -0.1
v 0.1 1 -0.1
v -0.1 1 -0.1
v -0.2 1 -0.1
v 0.4 1 -2.98023e-008
v 0.3 1 -2.98023e-008
v 0.1 1 -2.98023e-008
v -0.1 1 -2.98023e-008
v -0.3 1 -2.98023e-008
v -0.4 1 -2.98023e-008
v 0.4 1 0.1
v 0.3 1 0.1
v 0.2 1 0.1
v 0.1 1 0.1
v -0.1 1 0.1
v -0.2 1 0.1
v -0.3 1 0.1
v -0.4 1 0.1
v 0.2 1 0.2
v 0.1 1 0.2
v -0.1 1 0.2
v -0.2 1 0.2
v 0.3 1 0.3
v 0.2 1 0.3
v -0.2 1 0.3
v -0.3 1 0.3
v 0.2 1 0.4
v 0.1 1 0.4
v -0.1 1 0.4
v -0.2 1 0.4
v 0.3 1.1 -0.1
v 0.2 1.1 -0.1
v -0.2 1.1 -0.1
v -0.3 1.1 -0.1
v 0.3 1.1 0.1
v 0.2 1.1 0.1
v 0.1 1.1 0.1
v -0.1 1.1 0.1
v -0.2 1.1 0.1
v -0.3 1.1 0.1
v 0.1 1.1 0.4
v -0.1 1.1 0.4
v 0.3 1.2 -0.2
v 0.2 1.2 -0.2
v -0.2 1.2 -0.2
v -0.3 1.2 -0.2
v 0.3 1.2 -0.1
v 0.2 1.2 -0.1
v -0.2 1.2 -0.1
v -0.3 1.2 -0.1

# faces
f 3/4/1 2/4/1 1/4/1
f 4/4/1 2/4/1 3/4/1
f 7/3/1 6/3/1 5/3/1
f 8/3/1 6/3/1 7/3/1
f 12/4/1 10/4/1 9/4/1
f 13/4/1 10/4/1 12/4/1
f 15/3/1 12/3/1 11/3/1
f 15/3/1 14/3/1 13/3/1
f 15/3/1 13/3/1 12/3/1
f 16/3/1 14/3/1 15/3/1
f 17/3/1 15/3/1 11/3/1
f 18/3/1 14/3/1 16/3/1
f 19/3/1 14/3/1 18/3/1
f 22/3/1 17/3/1 11/3/1
f 23/3/1 17/3/1 22/3/1
f 24/3/1 20/3/1 19/3/1
f 24/3/1 19/3/1 18/3/1
f 25/3/1 20/3/1 24/3/1
f 26/3/1 23/3/1 22/3/1
f 26/3/1 22/3/1 21/3/1
f 26/3/1 24/3/1 23/3/1
f 27/3/1 24/3/1 26/3/1
f 28/3/1 24/3/1 27/3/1
f 29/7/1 27/7/1 26/7/1
f 30/7/1 27/7/1 29/7/1
f 33/4/1 32/4/1 31/4/1
f 34/4/1 32/4/1 33/4/1
f 37/4/1 32/4/1 34/4/1
f 39/4/1 37/4/1 34/4/1
f 40/3/1 38/3/1 37/3/1
f 40/4/1 37/4/1 39/4/1
f 41/3/1 38/3/1 40/3/1
f 42/9/1 36/9/1 35/9/1
f 43/9/1 36/9/1 42/9/1
f 46/3/1 40/3/1 39/3/1
f 49/7/1 46/7/1 45/7/1
f 50/3/1 40/3/1 46/3/1
f 50/7/1 46/7/1 49/7/1
f 51/3/1 40/3/1 50/3/1
f 52/3/1 40/3/1 51/3/1
f 53/3/1 48/3/1 47/3/1
f 54/3/1 48/3/1 53/3/1
f 55/2/1 44/2/1 43/2/1
f 56/2/1 44/2/1 55/2/1
f 58/3/1 57/3/1 56/3/1
f 59/3/1 57/3/1 58/3/1
f 64/1/1 61/1/1 60/1/1
f 65/1/1 61/1/1 64/1/1
f 66/9/1 63/9/1 62/9/1
f 67/9/1 63/9/1 66/9/1
f 71/5/1 69/5/1 68/5/1
f 71/5/1 70/5/1 69/5/1
f 72/5/1 70/5/1 71/5/1
f 75/4/1 74/4/1 73/4/1
f 76/4/1 74/4/1 75/4/1
f 79/4/1 74/4/1 76/4/1
f 80/9/1 78/9/1 77/9/1
f 81/4/1 79/4/1 76/4/1
f 82/4/1 79/4/1 81/4/1
f 83/9/1 80/9/1 77/9/1
f 84/9/1 80/9/1 83/9/1
f 86/3/1 82/3/1 81/3/1
f 87/3/1 82/3/1 86/3/1
f 88/7/1 86/7/1 85/7/1
f 89/7/1 86/7/1 88/7/1
f 91/3/1 90/3/1 89/3/1
f 92/3/1 90/3/1 91/3/1
f 94/6/1 93/6/1 92/6/1
f 95/6/1 93/6/1 94/6/1
f 98/4/1 97/4/1 96/4/1
f 99/4/1 98/4/1 96/4/1
f 100/4/1 98/4/1 99/4/1
f 104/3/1 102/3/1 101/3/1
f 104/3/1 103/3/1 102/3/1
f 105/3/1 103/3/1 104/3/1
f 106/3/1 103/3/1 105/3/1
f 107/7/1 105/7/1 104/7/1
f 108/7/1 105/7/1 107/7/1
f 109/4/2 110/4/2 111/4/2
f 109/4/2 111/4/2 112/4/2
f 112/4/2 111/4/2 113/4/2
f 114/3/2 115/3/2 117/3/2
f 115/3/2 116/3/2 117/3/2
f 117/3/2 116/3/2 118/3/2
f 118/3/2 116/3/2 119/3/2
f 117/7/2 118/7/2 120/7/2
f 120/7/2 118/7/2 121/7/2
f 122/4/2 123/4/2 124/4/2
f 124/4/2 123/4/2 125/4/2
f 125/4/2 123/4/2 128/4/2
f 126/9/2 127/9/2 129/9/2
f 125/4/2 128/4/2 130/4/2
f 130/4/2 128/4/2 131/4/2
f 126/9/2 129/9/2 132/9/2
f 132/9/2 129/9/2 133/9/2
f 130/3/2 131/3/2 135/3/2
f 135/3/2 131/3/2 136/3/2
f 134/7/2 135/7/2 137/7/2
f 137/7/2 135/7/2 138/7/2
f 138/3/2 139/3/2 140/3/2
f 140/3/2 139/3/2 141/3/2
f 141/6/2 142/6/2 143/6/2
f 143/6/2 142/6/2 144/6/2
f 145/1/2 146/1/2 149/1/2
f 149/1/2 146/1/2 150/1/2
f 147/9/2 148/9/2 151/9/2
f 151/9/2 148/9/2 152/9/2
f 153/5/2 154/5/2 156/5/2
f 154/5/2 155/5/2 156/5/2
f 156/5/2 155/5/2 157/5/2
f 158/4/2 159/4/2 160/4/2
f 160/4/2 159/4/2 161/4/2
f 161/4/2 159/4/2 164/4/2
f 161/4/2 164/4/2 166/4/2
f 164/3/2 165/3/2 167/3/2
f 166/4/2 164/4/2 167/4/2
f 167/3/2 165/3/2 168/3/2
f 162/9/2 163/9/2 169/9/2
f 169/9/2 163/9/2 170/9/2
f 166/3/2 167/3/2 173/3/2
f 172/7/2 173/7/2 176/7/2
f 173/3/2 167/3/2 177/3/2
f 176/7/2 173/7/2 177/7/2
f 177/3/2 167/3/2 178/3/2
f 178/3/2 167/3/2 179/3/2
f 174/3/2 175/3/2 180/3/2
f 180/3/2 175/3/2 181/3/2
f 170/2/2 171/2/2 182/2/2
f 182/2/2 171/2/2 183/2/2
f 183/3/2 184/3/2 185/3/2
f 185/3/2 184/3/2 186/3/2
f 187/4/2 188/4/2 190/4/2
f 190/4/2 188/4/2 191/4/2
f 189/3/2 190/3/2 193/3/2
f 191/3/2 192/3/2 193/3/2
f 190/3/2 191/3/2 193/3/2
f 193/3/2 192/3/2 194/3/2
f 189/3/2 193/3/2 195/3/2
f 194/3/2 192/3/2 196/3/2
f 196/3/2 192/3/2 197/3/2
f 189/3/2 195/3/2 200/3/2
f 200/3/2 195/3/2 201/3/2
f 197/3/2 198/3/2 202/3/2
f 196/3/2 197/3/2 202/3/2
f 202/3/2 198/3/2 203/3/2
f 200/3/2 201/3/2 204/3/2
f 199/3/2 200/3/2 204/3/2
f 201/3/2 202/3/2 204/3/2
f 204/3/2 202/3/2 205/3/2
f 205/3/2 202/3/2 206/3/2
f 204/7/2 205/7/2 207/7/2
f 207/7/2 205/7/2 208/7/2
f 209/4/2 210/4/2 211/4/2
f 211/4/2 210/4/2 212/4/2
f 213/3/2 214/3/2 215/3/2
f 215/3/2 214/3/2 216/3/2
f 221/4/3 218/4/3 217/4/3
f 222/4/3 218/4/3 221/4/3
f 223/7/3 220/7/3 219/7/3
f 224/7/3 220/7/3 223/7/3
f 229/4/3 226/4/3 225/4/3
f 230/4/3 226/4/3 229/4/3
f 231/7/3 228/7/3 227/7/3
f 232/7/3 228/7/3 231/7/3
f 241/3/3 234/3/3 233/3/3
f 242/7/3 235/7/3 234/7/3
f 242/3/3 234/3/3 241/3/3
f 243/7/3 235/7/3 242/7/3
f 244/4/3 237/4/3 236/4/3
f 245/3/3 238/3/3 237/3/3
f 245/4/3 237/4/3 244/4/3
f 246/3/3 238/3/3 245/3/3
f 247/3/3 240/3/3 239/3/3
f 248/3/3 240/3/3 247/3/3
f 251/3/3 247/3/3 246/3/3
f 252/3/3 247/3/3 251/3/3
f 254/4/3 250/4/3 249/4/3
f 255/3/3 251/3/3 250/3/3
f 255/4/3 250/4/3 254/4/3
f 256/3/3 251/3/3 255/3/3
f 257/3/3 253/3/3 252/3/3
f 258/3/3 253/3/3 257/3/3
f 262/3/3 260/3/3 259/3/3
f 263/7/3 261/7/3 260/7/3
f 263/3/3 260/3/3 262/3/3
f 264/7/3 261/7/3 263/7/3
f 267/3/3 266/3/3 265/3/3
f 268/3/3 266/3/3 267/3/3
f 269/3/3 266/3/3 268/3/3
f 274/6/3 269/6/3 268/6/3
f 275/6/3 269/6/3 274/6/3
f 276/3/3 272/3/3 271/3/3
f 276/3/3 271/3/3 270/3/3
f 277/3/3 272/3/3 276/3/3
f 278/3/3 272/3/3 277/3/3
f 279/3/3 274/3/3 273/3/3
f 280/3/3 274/3/3 279/3/3
f 283/6/3 281/6/3 280/6/3
f 284/6/3 281/6/3 283/6/3
f 285/3/3 283/3/3 282/3/3
f 285/3/3 284/3/3 283/3/3
f 286/3/3 284/3/3 285/3/3
f 291/4/3 288/4/3 287/4/3
f 293/3/3 290/3/3 289/3/3
f 294/3/3 290/3/3 293/3/3
f 295/4/3 292/4/3 291/4/3
f 295/4/3 291/4/3 287/4/3
f 296/4/3 292/4/3 295/4/3
f 297/4/3 292/4/3 296/4/3
f 302/1/3 299/1/3 298/1/3
f 303/1/3 299/1/3 302/1/3
f 304/6/3 301/6/3 300/6/3
f 305/6/3 301/6/3 304/6/3
f 309/4/3 307/4/3 306/4/3
f 309/4/3 308/4/3 307/4/3
f 310/4/3 308/4/3 309/4/3
f 313/4/3 309/4/3 306/4/3
f 314/4/3 309/4/3 313/4/3
f 315/3/3 312/3/3 311/3/3
f 316/3/3 312/3/3 315/3/3
f 321/3/3 318/3/3 317/3/3
f 322/3/3 318/3/3 321/3/3
f 323/9/3 320/9/3 319/9/3
f 324/9/3 320/9/3 323/9/3
f 329/5/3 326/5/3 325/5/3
f 330/5/3 326/5/3 329/5/3
f 331/9/3 328/9/3 327/9/3
f 332/9/3 328/9/3 331/9/3
f 335/3/3 334/3/3 333/3/3
f 336/3/3 334/3/3 335/3/3
f 339/9/3 338/9/3 337/9/3
f 340/9/3 338/9/3 339/9/3
f 341/7/4 342/7/4 345/7/4
f 345/7/4 342/7/4 346/7/4
f 343/4/4 344/4/4 347/4/4
f 347/4/4 344/4/4 348/4/4
f 349/4/4 350/4/4 351/4/4
f 351/4/4 350/4/4 352/4/4
f 353/7/4 354/7/4 355/7/4
f 355/7/4 354/7/4 356/7/4
f 357/3/4 358/3/4 359/3/4
f 359/3/4 358/3/4 360/3/4
f 361/3/4 362/3/4 363/3/4
f 363/3/4 362/3/4 364/3/4
f 365/4/4 366/4/4 369/4/4
f 367/3/4 368/3/4 371/3/4
f 371/3/4 368/3/4 372/3/4
f 369/4/4 370/4/4 374/4/4
f 365/4/4 369/4/4 374/4/4
f 374/4/4 370/4/4 375/4/4
f 375/4/4 370/4/4 376/4/4
f 372/3/4 373/3/4 377/3/4
f 377/3/4 373/3/4 378/3/4
f 379/1/4 380/1/4 381/1/4
f 381/1/4 380/1/4 382/1/4
f 384/4/4 385/4/4 388/4/4
f 383/4/4 384/4/4 388/4/4
f 388/4/4 385/4/4 389/4/4
f 386/3/4 387/3/4 391/3/4
f 391/3/4 387/3/4 392/3/4
f 383/4/4 388/4/4 393/4/4
f 393/4/4 388/4/4 394/4/4
f 390/3/4 391/3/4 395/3/4
f 395/3/4 391/3/4 396/3/4
f 397/3/4 398/3/4 400/3/4
f 400/3/4 398/3/4 401/3/4
f 399/9/4 400/9/4 402/9/4
f 402/9/4 400/9/4 403/9/4
f 403/9/4 400/9/4 404/9/4
f 405/9/4 406/9/4 408/9/4
f 406/9/4 407/9/4 408/9/4
f 408/9/4 407/9/4 409/9/4
f 409/3/4 410/3/4 411/3/4
f 411/3/4 410/3/4 412/3/4
f 413/3/4 414/3/4 416/3/4
f 416/3/4 414/3/4 417/3/4
f 415/2/4 416/2/4 420/2/4
f 420/2/4 416/2/4 421/2/4
f 421/2/4 416/2/4 422/2/4
f 420/10/4 421/10/4 423/10/4
f 421/8/4 422/8/4 423/8/4
f 423/8/4 422/8/4 424/8/4
f 418/9/4 419/9/4 425/9/4
f 425/9/4 419/9/4 426/9/4
f 415/2/4 420/2/4 427/2/4
f 420/10/4 423/10/4 427/10/4
f 423/10/4 424/10/4 427/10/4
f 427/10/4 424/10/4 428/10/4
f 415/2/4 427/2/4 429/2/4
f 427/2/4 428/2/4 429/2/4
f 429/2/4 428/2/4 430/2/4
f 430/3/4 431/3/4 432/3/4
f 432/3/4 431/3/4 433/3/4
f 434/3/4 435/3/4 436/3/4
f 434/3/4 436/3/4 438/3/4
f 436/5/4 437/5/4 438/5/4
f 438/5/4 437/5/4 439/5/4
f 434/3/4 438/3/4 440/3/4
f 440/3/4 438/3/4 441/3/4
f 446/4/5 443/4/5 442/4/5
f 447/4/5 443/4/5 446/4/5
f 448/4/5 445/4/5 444/4/5
f 449/4/5 445/4/5 448/4/5
f 454/4/5 451/4/5 450/4/5
f 455/4/5 451/4/5 454/4/5
f 456/4/5 453/4/5 452/4/5
f 457/4/5 453/4/5 456/4/5
f 461/1/5 459/1/5 458/1/5
f 462/1/5 459/1/5 461/1/5
f 464/9/5 461/9/5 460/9/5
f 465/9/5 461/9/5 464/9/5
f 466/9/5 463/9/5 462/9/5
f 467/9/5 463/9/5 466/9/5
f 468/9/5 466/9/5 465/9/5
f 469/9/5 466/9/5 468/9/5
f 474/3/5 471/3/5 470/3/5
f 474/3/5 473/3/5 472/3/5
f 474/3/5 472/3/5 471/3/5
f 475/3/5 473/3/5 474/3/5
f 476/3/5 473/3/5 475/3/5
f 477/3/5 473/3/5 476/3/5
f 478/3/5 475/3/5 474/3/5
f 479/3/5 475/3/5 478/3/5
f 480/3/5 477/3/5 476/3/5
f 481/3/5 477/3/5 480/3/5
f 486/3/5 483/3/5 482/3/5
f 487/3/5 483/3/5 486/3/5
f 488/3/5 485/3/5 484/3/5
f 489/3/5 485/3/5 488/3/5
f 496/3/5 491/3/5 490/3/5
f 497/3/5 491/3/5 496/3/5
f 498/3/5 493/3/5 492/3/5
f 499/3/5 493/3/5 498/3/5
f 500/3/5 495/3/5 494/3/5
f 501/3/5 495/3/5 500/3/5
f 502/2/5 499/2/5 498/2/5
f 502/2/5 500/2/5 499/2/5
f 502/2/5 498/2/5 497/2/5
f 503/2/5 500/2/5 502/2/5
f 508/7/5 505/7/5 504/7/5
f 509/7/5 505/7/5 508/7/5
f 510/7/5 507/7/5 506/7/5
f 511/7/5 507/7/5 510/7/5
f 512/3/5 510/3/5 509/3/5
f 513/3/5 510/3/5 512/3/5
f 520/3/5 515/3/5 514/3/5
f 520/3/5 516/3/5 515/3/5
f 521/3/5 516/3/5 520/3/5
f 522/3/5 516/3/5 521/3/5
f 523/3/5 519/3/5 518/3/5
f 523/3/5 518/3/5 517/3/5
f 524/3/5 519/3/5 523/3/5
f 525/3/5 519/3/5 524/3/5
f 530/3/5 527/3/5 526/3/5
f 531/3/5 527/3/5 530/3/5
f 535/3/5 529/3/5 528/3/5
f 536/3/5 529/3/5 535/3/5
f 537/3/5 534/3/5 533/3/5
f 537/3/5 535/3/5 534/3/5
f 537/3/5 532/3/5 531/3/5
f 537/3/5 533/3/5 532/3/5
f 538/3/5 535/3/5 537/3/5
f 543/3/5 540/3/5 539/3/5
f 544/3/5 540/3/5 543/3/5
f 545/3/5 542/3/5 541/3/5
f 546/3/5 542/3/5 545/3/5
f 547/4/6 548/4/6 551/4/6
f 551/4/6 548/4/6 552/4/6
f 549/4/6 550/4/6 553/4/6
f 553/4/6 550/4/6 554/4/6
f 555/4/6 556/4/6 559/4/6
f 559/4/6 556/4/6 560/4/6
f 557/4/6 558/4/6 561/4/6
f 561/4/6 558/4/6 562/4/6
f 563/9/6 564/9/6 565/9/6
f 565/9/6 564/9/6 566/9/6
f 567/3/6 568/3/6 571/3/6
f 571/3/6 568/3/6 572/3/6
f 569/3/6 570/3/6 573/3/6
f 573/3/6 570/3/6 574/3/6
f 575/7/6 576/7/6 579/7/6
f 579/7/6 576/7/6 580/7/6
f 577/7/6 578/7/6 581/7/6
f 581/7/6 578/7/6 582/7/6
f 580/3/6 581/3/6 583/3/6
f 583/3/6 581/3/6 584/3/6
f 585/3/6 586/3/6 589/3/6
f 589/3/6 586/3/6 590/3/6
f 587/3/6 588/3/6 591/3/6
f 591/3/6 588/3/6 592/3/6
f 590/3/6 591/3/6 593/3/6
f 593/3/6 591/3/6 594/3/6
f 595/6/6 596/6/6 601/6/6
f 597/6/6 598/6/6 602/6/6
f 599/3/6 600/3/6 605/3/6
f 605/3/6 600/3/6 606/3/6
f 595/6/6 601/6/6 607/6/6
f 601/6/6 602/6/6 607/6/6
f 607/6/6 602/6/6 608/6/6
f 602/6/6 598/6/6 609/6/6
f 608/6/6 602/6/6 609/6/6
f 609/6/6 598/6/6 610/6/6
f 603/3/6 604/3/6 611/3/6
f 611/3/6 604/3/6 612/3/6
f 607/6/6 608/6/6 613/6/6
f 606/3/6 607/3/6 613/3/6
f 613/6/6 608/6/6 614/6/6
f 609/6/6 610/6/6 615/6/6
f 610/3/6 611/3/6 616/3/6
f 615/6/6 610/6/6 616/6/6
f 613/3/6 614/3/6 617/3/6
f 606/3/6 613/3/6 617/3/6
f 617/3/6 614/3/6 618/3/6
f 616/3/6 611/3/6 619/3/6
f 615/3/6 616/3/6 619/3/6
f 619/3/6 611/3/6 620/3/6
f 618/3/6 614/3/6 621/3/6
f 621/3/6 614/3/6 622/3/6
f 615/3/6 619/3/6 623/3/6
f 623/3/6 619/3/6 624/3/6
f 625/3/6 626/3/6 629/3/6
f 629/3/6 626/3/6 630/3/6
f 627/3/6 628/3/6 633/3/6
f 633/3/6 628/3/6 634/3/6
f 631/5/6 632/5/6 635/5/6
f 635/5/6 632/5/6 636/5/6
f 637/7/6 638/7/6 641/7/6
f 641/7/6 638/7/6 642/7/6
f 639/7/6 640/7/6 643/7/6
f 643/7/6 640/7/6 644/7/6
