# MagicaVoxel @ Ephtracy

# group
o 

# material
mtllib tower_top2.mtl
usemtl palette

# normals
vn -1 0 0
vn 1 0 0
vn 0 0 1
vn 0 0 -1
vn 0 -1 0
vn 0 1 0

# texcoords
vt 0.0996094 0.5
vt 0.373047 0.5
vt 0.447266 0.5
vt 0.552734 0.5
vt 0.662109 0.5

# verts
v -0.3 0.1 0.1
v -0.3 0.1 -0.5
v -0.3 0.2 0.1
v -0.3 0.2 -0.1
v -0.3 0.2 -0.4
v -0.3 0.2 -0.5
v -0.3 0.3 0.1
v -0.3 0.3 -0.1
v -0.3 0.3 -0.4
v -0.3 0.3 -0.5
v -0.2 -2.23517e-008 0.2
v -0.2 -2.23517e-008 -0.4
v -0.2 0.1 0.3
v -0.2 0.1 0.2
v -0.2 0.1 0.1
v -0.2 0.1 -0.4
v -0.2 0.2 0.5
v -0.2 0.2 0.3
v -0.2 0.2 0.1
v -0.2 0.2 -0.1
v -0.2 0.2 -0.4
v -0.2 0.3 0.5
v -0.2 0.3 0.3
v -0.2 0.3 0.1
v -0.2 0.3 -0.1
v -0.2 0.3 -0.4
v -0.2 0.4 0.3
v -0.2 0.4 5.96046e-008
v -0.2 0.4 -0.1
v -0.2 0.4 -0.3
v -0.2 0.5 5.96046e-008
v -0.2 0.5 -0.1
v -0.2 0.5 -0.3
v -0.2 0.5 -0.4
v -0.1 -2.23517e-008 0.4
v -0.1 -2.23517e-008 0.2
v -0.1 0.1 0.6
v -0.1 0.1 0.4
v -0.1 0.1 0.3
v -0.1 0.1 0.2
v -0.1 0.2 0.5
v -0.1 0.2 0.3
v -0.1 0.2 -0.5
v -0.1 0.2 -0.6
v -0.1 0.3 0.6
v -0.1 0.3 0.5
v -0.1 0.3 -0.4
v -0.1 0.3 -0.5
v -0.1 0.4 0.1
v -0.1 0.4 5.96046e-008
v -0.1 0.4 -0.5
v -0.1 0.4 -0.6
v -0.1 0.5 0.1
v -0.1 0.5 5.96046e-008
v -0.1 0.5 -0.1
v -0.1 0.5 -0.3
v -0.1 0.5 -0.4
v -0.1 0.5 -0.5
v -0.1 0.5 -0.6
v -0.1 0.6 5.96046e-008
v -0.1 0.6 -0.1
v -0.1 0.6 -0.2
v -0.1 0.6 -0.4
v -0.1 0.6 -0.5
v -0.1 0.7 -0.1
v -0.1 0.7 -0.2
v -0.1 0.7 -0.4
v 0.1 -2.23517e-008 0.4
v 0.1 -2.23517e-008 0.2
v 0.1 0.1 0.6
v 0.1 0.1 0.4
v 0.1 0.1 0.3
v 0.1 0.1 0.2
v 0.1 0.2 0.5
v 0.1 0.2 0.3
v 0.1 0.2 -0.5
v 0.1 0.2 -0.6
v 0.1 0.3 0.6
v 0.1 0.3 0.5
v 0.1 0.3 -0.4
v 0.1 0.3 -0.5
v 0.1 0.4 0.1
v 0.1 0.4 5.96046e-008
v 0.1 0.4 -0.5
v 0.1 0.4 -0.6
v 0.1 0.5 0.1
v 0.1 0.5 5.96046e-008
v 0.1 0.5 -0.1
v 0.1 0.5 -0.3
v 0.1 0.5 -0.4
v 0.1 0.5 -0.5
v 0.1 0.5 -0.6
v 0.1 0.6 5.96046e-008
v 0.1 0.6 -0.1
v 0.1 0.6 -0.2
v 0.1 0.6 -0.4
v 0.1 0.6 -0.5
v 0.1 0.7 -0.1
v 0.1 0.7 -0.2
v 0.1 0.7 -0.4
v 0.2 -2.23517e-008 0.2
v 0.2 -2.23517e-008 -0.4
v 0.2 0.1 0.3
v 0.2 0.1 0.2
v 0.2 0.1 0.1
v 0.2 0.1 -0.4
v 0.2 0.2 0.5
v 0.2 0.2 0.3
v 0.2 0.2 0.1
v 0.2 0.2 -0.1
v 0.2 0.2 -0.4
v 0.2 0.3 0.5
v 0.2 0.3 0.3
v 0.2 0.3 0.1
v 0.2 0.3 -0.1
v 0.2 0.3 -0.4
v 0.2 0.4 0.3
v 0.2 0.4 5.96046e-008
v 0.2 0.4 -0.1
v 0.2 0.4 -0.3
v 0.2 0.5 5.96046e-008
v 0.2 0.5 -0.1
v 0.2 0.5 -0.3
v 0.2 0.5 -0.4
v 0.3 0.1 0.1
v 0.3 0.1 -0.5
v 0.3 0.2 0.1
v 0.3 0.2 -0.1
v 0.3 0.2 -0.4
v 0.3 0.2 -0.5
v 0.3 0.3 0.1
v 0.3 0.3 -0.1
v 0.3 0.3 -0.4
v 0.3 0.3 -0.5
v -0.1 0.1 0.6
v -0.1 0.3 0.6
v 0.1 0.1 0.6
v 0.1 0.3 0.6
v -0.2 0.2 0.5
v -0.2 0.3 0.5
v -0.1 0.2 0.5
v -0.1 0.3 0.5
v 0.1 0.2 0.5
v 0.1 0.3 0.5
v 0.2 0.2 0.5
v 0.2 0.3 0.5
v -0.1 -2.23517e-008 0.4
v -0.1 0.1 0.4
v 0.1 -2.23517e-008 0.4
v 0.1 0.1 0.4
v -0.2 0.1 0.3
v -0.2 0.2 0.3
v -0.2 0.3 0.3
v -0.2 0.4 0.3
v -0.1 0.1 0.3
v -0.1 0.2 0.3
v -0.1 0.3 0.3
v -0.1 0.4 0.3
v 0.1 0.1 0.3
v 0.1 0.2 0.3
v 0.1 0.3 0.3
v 0.1 0.4 0.3
v 0.2 0.1 0.3
v 0.2 0.2 0.3
v 0.2 0.3 0.3
v 0.2 0.4 0.3
v -0.2 -2.23517e-008 0.2
v -0.2 0.1 0.2
v -0.1 -2.23517e-008 0.2
v -0.1 0.1 0.2
v 0.1 -2.23517e-008 0.2
v 0.1 0.1 0.2
v 0.2 -2.23517e-008 0.2
v 0.2 0.1 0.2
v -0.3 0.1 0.1
v -0.3 0.2 0.1
v -0.3 0.3 0.1
v -0.2 0.1 0.1
v -0.2 0.2 0.1
v -0.2 0.3 0.1
v -0.1 0.4 0.1
v -0.1 0.5 0.1
v 0.1 0.4 0.1
v 0.1 0.5 0.1
v 0.2 0.1 0.1
v 0.2 0.2 0.1
v 0.2 0.3 0.1
v 0.3 0.1 0.1
v 0.3 0.2 0.1
v 0.3 0.3 0.1
v -0.2 0.4 5.96046e-008
v -0.2 0.5 5.96046e-008
v -0.1 0.4 5.96046e-008
v -0.1 0.5 5.96046e-008
v -0.1 0.6 5.96046e-008
v 0.1 0.4 5.96046e-008
v 0.1 0.5 5.96046e-008
v 0.1 0.6 5.96046e-008
v 0.2 0.4 5.96046e-008
v 0.2 0.5 5.96046e-008
v -0.1 0.6 -0.1
v -0.1 0.7 -0.1
v 0.1 0.6 -0.1
v 0.1 0.7 -0.1
v -0.3 0.2 -0.4
v -0.3 0.3 -0.4
v -0.2 0.2 -0.4
v -0.2 0.3 -0.4
v 0.2 0.2 -0.4
v 0.2 0.3 -0.4
v 0.3 0.2 -0.4
v 0.3 0.3 -0.4
v -0.3 0.2 -0.1
v -0.3 0.3 -0.1
v -0.2 0.2 -0.1
v -0.2 0.3 -0.1
v 0.2 0.2 -0.1
v 0.2 0.3 -0.1
v 0.3 0.2 -0.1
v 0.3 0.3 -0.1
v -0.2 -2.23517e-008 -0.4
v -0.2 0.1 -0.4
v -0.2 0.3 -0.4
v -0.2 0.5 -0.4
v -0.1 0.1 -0.4
v -0.1 0.3 -0.4
v -0.1 0.5 -0.4
v -0.1 0.6 -0.4
v -0.1 0.7 -0.4
v 0.1 0.1 -0.4
v 0.1 0.3 -0.4
v 0.1 0.5 -0.4
v 0.1 0.6 -0.4
v 0.1 0.7 -0.4
v 0.2 -2.23517e-008 -0.4
v 0.2 0.1 -0.4
v 0.2 0.3 -0.4
v 0.2 0.5 -0.4
v -0.3 0.1 -0.5
v -0.3 0.2 -0.5
v -0.3 0.3 -0.5
v -0.2 0.2 -0.5
v -0.2 0.3 -0.5
v -0.1 0.1 -0.5
v -0.1 0.2 -0.5
v -0.1 0.3 -0.5
v -0.1 0.5 -0.5
v -0.1 0.6 -0.5
v 0.1 0.1 -0.5
v 0.1 0.2 -0.5
v 0.1 0.3 -0.5
v 0.1 0.5 -0.5
v 0.1 0.6 -0.5
v 0.2 0.2 -0.5
v 0.2 0.3 -0.5
v 0.3 0.1 -0.5
v 0.3 0.2 -0.5
v 0.3 0.3 -0.5
v -0.1 0.2 -0.6
v -0.1 0.4 -0.6
v -0.1 0.5 -0.6
v 0.1 0.2 -0.6
v 0.1 0.4 -0.6
v 0.1 0.5 -0.6
v -0.1 -2.23517e-008 0.4
v 0.1 -2.23517e-008 0.4
v -0.2 -2.23517e-008 0.2
v -0.1 -2.23517e-008 0.2
v 0.1 -2.23517e-008 0.2
v 0.2 -2.23517e-008 0.2
v -0.2 -2.23517e-008 -0.4
v 0.2 -2.23517e-008 -0.4
v -0.1 0.1 0.6
v 0.1 0.1 0.6
v -0.1 0.1 0.4
v 0.1 0.1 0.4
v -0.2 0.1 0.3
v -0.1 0.1 0.3
v 0.1 0.1 0.3
v 0.2 0.1 0.3
v -0.2 0.1 0.2
v -0.1 0.1 0.2
v 0.1 0.1 0.2
v 0.2 0.1 0.2
v -0.3 0.1 0.1
v -0.2 0.1 0.1
v 0.2 0.1 0.1
v 0.3 0.1 0.1
v -0.2 0.1 -0.4
v -0.1 0.1 -0.4
v 0.1 0.1 -0.4
v 0.2 0.1 -0.4
v -0.3 0.1 -0.5
v -0.1 0.1 -0.5
v 0.1 0.1 -0.5
v 0.3 0.1 -0.5
v -0.2 0.2 0.5
v -0.1 0.2 0.5
v 0.1 0.2 0.5
v 0.2 0.2 0.5
v -0.2 0.2 0.3
v -0.1 0.2 0.3
v 0.1 0.2 0.3
v 0.2 0.2 0.3
v -0.1 0.2 -0.5
v 0.1 0.2 -0.5
v -0.1 0.2 -0.6
v 0.1 0.2 -0.6
v -0.3 0.2 -0.1
v -0.2 0.2 -0.1
v 0.2 0.2 -0.1
v 0.3 0.2 -0.1
v -0.3 0.2 -0.4
v -0.2 0.2 -0.4
v 0.2 0.2 -0.4
v 0.3 0.2 -0.4
v -0.1 0.3 0.6
v 0.1 0.3 0.6
v -0.2 0.3 0.5
v -0.1 0.3 0.5
v 0.1 0.3 0.5
v 0.2 0.3 0.5
v -0.2 0.3 0.3
v -0.1 0.3 0.3
v 0.1 0.3 0.3
v 0.2 0.3 0.3
v -0.3 0.3 0.1
v -0.2 0.3 0.1
v 0.2 0.3 0.1
v 0.3 0.3 0.1
v -0.3 0.3 -0.1
v -0.2 0.3 -0.1
v 0.2 0.3 -0.1
v 0.3 0.3 -0.1
v -0.3 0.3 -0.4
v -0.2 0.3 -0.4
v -0.1 0.3 -0.4
v 0.1 0.3 -0.4
v 0.2 0.3 -0.4
v 0.3 0.3 -0.4
v -0.3 0.3 -0.5
v -0.2 0.3 -0.5
v -0.1 0.3 -0.5
v 0.1 0.3 -0.5
v 0.2 0.3 -0.5
v 0.3 0.3 -0.5
v -0.2 0.4 0.3
v -0.1 0.4 0.3
v 0.1 0.4 0.3
v 0.2 0.4 0.3
v -0.1 0.4 0.1
v 0.1 0.4 0.1
v -0.2 0.4 5.96046e-008
v -0.1 0.4 5.96046e-008
v 0.1 0.4 5.96046e-008
v 0.2 0.4 5.96046e-008
v -0.1 0.5 0.1
v 0.1 0.5 0.1
v -0.2 0.5 5.96046e-008
v -0.1 0.5 5.96046e-008
v 0.1 0.5 5.96046e-008
v 0.2 0.5 5.96046e-008
v -0.2 0.5 -0.1
v -0.1 0.5 -0.1
v 0.1 0.5 -0.1
v 0.2 0.5 -0.1
v -0.2 0.5 -0.3
v -0.1 0.5 -0.3
v 0.1 0.5 -0.3
v 0.2 0.5 -0.3
v -0.2 0.5 -0.4
v -0.1 0.5 -0.4
v 0.1 0.5 -0.4
v 0.2 0.5 -0.4
v -0.1 0.5 -0.5
v 0.1 0.5 -0.5
v -0.1 0.5 -0.6
v 0.1 0.5 -0.6
v -0.1 0.6 5.96046e-008
v 0.1 0.6 5.96046e-008
v -0.1 0.6 -0.1
v 0.1 0.6 -0.1
v -0.1 0.6 -0.4
v 0.1 0.6 -0.4
v -0.1 0.6 -0.5
v 0.1 0.6 -0.5
v -0.1 0.7 -0.1
v 0.1 0.7 -0.1
v -0.1 0.7 -0.2
v 0.1 0.7 -0.2
v -0.1 0.7 -0.4
v 0.1 0.7 -0.4

# faces
f 3/3/1 2/3/1 1/3/1
f 4/3/1 2/3/1 3/3/1
f 5/3/1 2/3/1 4/3/1
f 6/3/1 2/3/1 5/3/1
f 7/1/1 4/1/1 3/1/1
f 8/1/1 4/1/1 7/1/1
f 9/1/1 6/1/1 5/1/1
f 10/1/1 6/1/1 9/1/1
f 14/5/1 12/5/1 11/5/1
f 15/5/1 12/5/1 14/5/1
f 16/5/1 12/5/1 15/5/1
f 18/3/1 14/3/1 13/3/1
f 18/3/1 15/3/1 14/3/1
f 19/3/1 15/3/1 18/3/1
f 22/4/1 18/4/1 17/4/1
f 22/4/1 19/4/1 18/4/1
f 23/4/1 19/4/1 22/4/1
f 24/4/1 19/4/1 23/4/1
f 25/1/1 21/1/1 20/1/1
f 26/1/1 21/1/1 25/1/1
f 27/3/1 24/3/1 23/3/1
f 27/3/1 26/3/1 25/3/1
f 27/3/1 25/3/1 24/3/1
f 28/3/1 26/3/1 27/3/1
f 29/3/1 26/3/1 28/3/1
f 30/3/1 26/3/1 29/3/1
f 31/3/1 29/3/1 28/3/1
f 32/2/1 30/2/1 29/2/1
f 32/3/1 29/3/1 31/3/1
f 33/3/1 26/3/1 30/3/1
f 33/2/1 30/2/1 32/2/1
f 34/3/1 26/3/1 33/3/1
f 38/5/1 36/5/1 35/5/1
f 39/5/1 36/5/1 38/5/1
f 40/5/1 36/5/1 39/5/1
f 41/1/1 38/1/1 37/1/1
f 41/1/1 39/1/1 38/1/1
f 42/1/1 39/1/1 41/1/1
f 45/1/1 41/1/1 37/1/1
f 46/1/1 41/1/1 45/1/1
f 48/4/1 44/4/1 43/4/1
f 51/4/1 48/4/1 47/4/1
f 51/4/1 44/4/1 48/4/1
f 52/4/1 44/4/1 51/4/1
f 53/4/1 50/4/1 49/4/1
f 54/4/1 50/4/1 53/4/1
f 57/4/1 51/4/1 47/4/1
f 58/1/1 52/1/1 51/1/1
f 58/4/1 51/4/1 57/4/1
f 59/1/1 52/1/1 58/1/1
f 60/2/1 56/2/1 55/2/1
f 60/2/1 57/2/1 56/2/1
f 60/2/1 55/2/1 54/2/1
f 61/2/1 57/2/1 60/2/1
f 62/2/1 57/2/1 61/2/1
f 63/1/1 58/1/1 57/1/1
f 63/2/1 57/2/1 62/2/1
f 64/1/1 58/1/1 63/1/1
f 65/4/1 62/4/1 61/4/1
f 66/1/1 63/1/1 62/1/1
f 66/4/1 62/4/1 65/4/1
f 67/1/1 63/1/1 66/1/1
f 68/5/2 69/5/2 71/5/2
f 71/5/2 69/5/2 72/5/2
f 72/5/2 69/5/2 73/5/2
f 70/1/2 71/1/2 74/1/2
f 71/1/2 72/1/2 74/1/2
f 74/1/2 72/1/2 75/1/2
f 70/1/2 74/1/2 78/1/2
f 78/1/2 74/1/2 79/1/2
f 76/4/2 77/4/2 81/4/2
f 80/4/2 81/4/2 84/4/2
f 81/4/2 77/4/2 84/4/2
f 84/4/2 77/4/2 85/4/2
f 82/4/2 83/4/2 86/4/2
f 86/4/2 83/4/2 87/4/2
f 80/4/2 84/4/2 90/4/2
f 84/1/2 85/1/2 91/1/2
f 90/4/2 84/4/2 91/4/2
f 91/1/2 85/1/2 92/1/2
f 88/2/2 89/2/2 93/2/2
f 89/2/2 90/2/2 93/2/2
f 87/2/2 88/2/2 93/2/2
f 93/2/2 90/2/2 94/2/2
f 94/2/2 90/2/2 95/2/2
f 90/1/2 91/1/2 96/1/2
f 95/2/2 90/2/2 96/2/2
f 96/1/2 91/1/2 97/1/2
f 94/4/2 95/4/2 98/4/2
f 95/1/2 96/1/2 99/1/2
f 98/4/2 95/4/2 99/4/2
f 99/1/2 96/1/2 100/1/2
f 101/5/2 102/5/2 104/5/2
f 104/5/2 102/5/2 105/5/2
f 105/5/2 102/5/2 106/5/2
f 103/3/2 104/3/2 108/3/2
f 104/3/2 105/3/2 108/3/2
f 108/3/2 105/3/2 109/3/2
f 107/4/2 108/4/2 112/4/2
f 108/4/2 109/4/2 112/4/2
f 112/4/2 109/4/2 113/4/2
f 113/4/2 109/4/2 114/4/2
f 110/1/2 111/1/2 115/1/2
f 115/1/2 111/1/2 116/1/2
f 113/3/2 114/3/2 117/3/2
f 115/3/2 116/3/2 117/3/2
f 114/3/2 115/3/2 117/3/2
f 117/3/2 116/3/2 118/3/2
f 118/3/2 116/3/2 119/3/2
f 119/3/2 116/3/2 120/3/2
f 118/3/2 119/3/2 121/3/2
f 119/2/2 120/2/2 122/2/2
f 121/3/2 119/3/2 122/3/2
f 120/3/2 116/3/2 123/3/2
f 122/2/2 120/2/2 123/2/2
f 123/3/2 116/3/2 124/3/2
f 125/3/2 126/3/2 127/3/2
f 127/3/2 126/3/2 128/3/2
f 128/3/2 126/3/2 129/3/2
f 129/3/2 126/3/2 130/3/2
f 127/1/2 128/1/2 131/1/2
f 131/1/2 128/1/2 132/1/2
f 129/1/2 130/1/2 133/1/2
f 133/1/2 130/1/2 134/1/2
f 137/1/3 136/1/3 135/1/3
f 138/1/3 136/1/3 137/1/3
f 141/4/3 140/4/3 139/4/3
f 142/4/3 140/4/3 141/4/3
f 145/4/3 144/4/3 143/4/3
f 146/4/3 144/4/3 145/4/3
f 149/5/3 148/5/3 147/5/3
f 150/5/3 148/5/3 149/5/3
f 155/3/3 152/3/3 151/3/3
f 156/3/3 152/3/3 155/3/3
f 157/3/3 154/3/3 153/3/3
f 158/3/3 154/3/3 157/3/3
f 161/4/3 158/4/3 157/4/3
f 162/4/3 158/4/3 161/4/3
f 163/3/3 160/3/3 159/3/3
f 164/3/3 160/3/3 163/3/3
f 165/3/3 162/3/3 161/3/3
f 166/3/3 162/3/3 165/3/3
f 169/5/3 168/5/3 167/5/3
f 170/5/3 168/5/3 169/5/3
f 173/5/3 172/5/3 171/5/3
f 174/5/3 172/5/3 173/5/3
f 178/3/3 176/3/3 175/3/3
f 179/1/3 177/1/3 176/1/3
f 179/3/3 176/3/3 178/3/3
f 180/1/3 177/1/3 179/1/3
f 183/4/3 182/4/3 181/4/3
f 184/4/3 182/4/3 183/4/3
f 188/3/3 186/3/3 185/3/3
f 189/1/3 187/1/3 186/1/3
f 189/3/3 186/3/3 188/3/3
f 190/1/3 187/1/3 189/1/3
f 193/3/3 192/3/3 191/3/3
f 194/3/3 192/3/3 193/3/3
f 197/2/3 195/2/3 194/2/3
f 198/2/3 195/2/3 197/2/3
f 199/3/3 197/3/3 196/3/3
f 200/3/3 197/3/3 199/3/3
f 203/4/3 202/4/3 201/4/3
f 204/4/3 202/4/3 203/4/3
f 207/1/3 206/1/3 205/1/3
f 208/1/3 206/1/3 207/1/3
f 211/1/3 210/1/3 209/1/3
f 212/1/3 210/1/3 211/1/3
f 213/1/4 214/1/4 215/1/4
f 215/1/4 214/1/4 216/1/4
f 217/1/4 218/1/4 219/1/4
f 219/1/4 218/1/4 220/1/4
f 221/5/4 222/5/4 225/5/4
f 223/3/4 224/3/4 226/3/4
f 226/3/4 224/3/4 227/3/4
f 221/5/4 225/5/4 230/5/4
f 228/1/4 229/1/4 233/1/4
f 233/1/4 229/1/4 234/1/4
f 221/5/4 230/5/4 235/5/4
f 235/5/4 230/5/4 236/5/4
f 231/3/4 232/3/4 237/3/4
f 237/3/4 232/3/4 238/3/4
f 239/3/4 240/3/4 242/3/4
f 240/1/4 241/1/4 242/1/4
f 242/1/4 241/1/4 243/1/4
f 239/3/4 242/3/4 244/3/4
f 242/3/4 243/3/4 244/3/4
f 244/3/4 243/3/4 245/3/4
f 245/3/4 243/3/4 246/3/4
f 244/4/4 245/4/4 249/4/4
f 249/4/4 245/4/4 250/4/4
f 247/1/4 248/1/4 252/1/4
f 252/1/4 248/1/4 253/1/4
f 250/3/4 251/3/4 254/3/4
f 249/3/4 250/3/4 254/3/4
f 254/3/4 251/3/4 255/3/4
f 249/3/4 254/3/4 256/3/4
f 254/1/4 255/1/4 257/1/4
f 256/3/4 254/3/4 257/3/4
f 257/1/4 255/1/4 258/1/4
f 259/4/4 260/4/4 262/4/4
f 260/1/4 261/1/4 263/1/4
f 262/4/4 260/4/4 263/4/4
f 263/1/4 261/1/4 264/1/4
f 268/5/5 266/5/5 265/5/5
f 269/5/5 266/5/5 268/5/5
f 271/5/5 268/5/5 267/5/5
f 271/5/5 270/5/5 269/5/5
f 271/5/5 269/5/5 268/5/5
f 272/5/5 270/5/5 271/5/5
f 275/1/5 274/1/5 273/1/5
f 276/1/5 274/1/5 275/1/5
f 281/3/5 278/3/5 277/3/5
f 282/3/5 278/3/5 281/3/5
f 283/3/5 280/3/5 279/3/5
f 284/3/5 280/3/5 283/3/5
f 289/3/5 286/3/5 285/3/5
f 292/3/5 288/3/5 287/3/5
f 293/3/5 289/3/5 285/3/5
f 293/3/5 290/3/5 289/3/5
f 294/4/5 291/4/5 290/4/5
f 294/3/5 290/3/5 293/3/5
f 295/3/5 292/3/5 291/3/5
f 295/4/5 291/4/5 294/4/5
f 296/3/5 288/3/5 292/3/5
f 296/3/5 292/3/5 295/3/5
f 301/4/5 298/4/5 297/4/5
f 302/4/5 298/4/5 301/4/5
f 303/4/5 300/4/5 299/4/5
f 304/4/5 300/4/5 303/4/5
f 307/4/5 306/4/5 305/4/5
f 308/4/5 306/4/5 307/4/5
f 309/3/6 310/3/6 313/3/6
f 313/3/6 310/3/6 314/3/6
f 311/3/6 312/3/6 315/3/6
f 315/3/6 312/3/6 316/3/6
f 317/1/6 318/1/6 320/1/6
f 320/1/6 318/1/6 321/1/6
f 319/4/6 320/4/6 323/4/6
f 320/1/6 321/1/6 324/1/6
f 323/4/6 320/4/6 324/4/6
f 321/4/6 322/4/6 325/4/6
f 324/1/6 321/1/6 325/1/6
f 325/4/6 322/4/6 326/4/6
f 327/1/6 328/1/6 331/1/6
f 331/1/6 328/1/6 332/1/6
f 329/1/6 330/1/6 333/1/6
f 333/1/6 330/1/6 334/1/6
f 335/1/6 336/1/6 341/1/6
f 336/3/6 337/3/6 342/3/6
f 341/1/6 336/1/6 342/1/6
f 342/3/6 337/3/6 343/3/6
f 338/3/6 339/3/6 344/3/6
f 339/1/6 340/1/6 345/1/6
f 344/3/6 339/3/6 345/3/6
f 345/1/6 340/1/6 346/1/6
f 347/3/6 348/3/6 351/3/6
f 348/4/6 349/4/6 351/4/6
f 349/3/6 350/3/6 352/3/6
f 351/4/6 349/4/6 352/4/6
f 347/3/6 351/3/6 353/3/6
f 353/3/6 351/3/6 354/3/6
f 352/3/6 350/3/6 355/3/6
f 355/3/6 350/3/6 356/3/6
f 357/4/6 358/4/6 360/4/6
f 360/4/6 358/4/6 361/4/6
f 359/3/6 360/3/6 363/3/6
f 363/3/6 360/3/6 364/3/6
f 361/3/6 362/3/6 365/3/6
f 365/3/6 362/3/6 366/3/6
f 363/2/6 364/2/6 367/2/6
f 367/2/6 364/2/6 368/2/6
f 365/2/6 366/2/6 369/2/6
f 369/2/6 366/2/6 370/2/6
f 367/3/6 368/3/6 371/3/6
f 371/3/6 368/3/6 372/3/6
f 369/3/6 370/3/6 373/3/6
f 373/3/6 370/3/6 374/3/6
f 375/1/6 376/1/6 377/1/6
f 377/1/6 376/1/6 378/1/6
f 379/2/6 380/2/6 381/2/6
f 381/2/6 380/2/6 382/2/6
f 383/1/6 384/1/6 385/1/6
f 385/1/6 384/1/6 386/1/6
f 387/4/6 388/4/6 389/4/6
f 389/4/6 388/4/6 390/4/6
f 389/1/6 390/1/6 391/1/6
f 391/1/6 390/1/6 392/1/6
